<svg width="19" height="19" viewBox="0 0 19 19" fill="none" xmlns="http://www.w3.org/2000/svg">
<path fill-rule="evenodd" clip-rule="evenodd" d="M12.6667 17.0209V8.31252H13.2605C13.589 8.31252 13.8541 8.57768 13.8541 8.90622V14.448C13.8541 15.8689 15.0061 17.0209 16.4271 17.0209C17.8481 17.0209 19 15.8689 19 14.448V3.79215C19 3.23392 18.7704 2.7314 18.4024 2.3711L16.3042 0.285293C15.9245 -0.0950975 15.3107 -0.0950975 14.9307 0.285293C14.5508 0.665247 14.5508 1.27877 14.9307 1.65837L16.2926 3.02409L15.2872 4.0732C14.9587 4.40942 14.9587 4.95179 15.2872 5.28848C15.4491 5.46245 15.6672 5.54558 15.8848 5.5417L17.0209 5.53787V14.448C17.0209 14.7766 16.7557 15.0418 16.4271 15.0418C16.0985 15.0418 15.8333 14.7766 15.8333 14.448V8.90622C15.8333 7.48526 14.6815 6.33337 13.2606 6.33337H12.6667V1.58331C12.6667 0.708597 11.9581 5.44194e-05 11.0833 5.44194e-05H2.77086C1.89607 5.44194e-05 1.18748 0.70864 1.18748 1.58331V17.0209H0.989553C0.443388 17.0209 0 17.4642 0 18.0105C0 18.5567 0.443388 19 0.989553 19H12.8646C13.4108 19 13.854 18.5567 13.854 18.0105C13.854 17.4642 13.4108 17.0209 12.8646 17.0209H12.6667ZM4.03751 1.97916H9.81658C10.2993 1.97916 10.6875 2.36727 10.6875 2.85013V7.04575C10.6875 7.52861 10.2993 7.91662 9.81658 7.91662H4.03751C3.55473 7.91662 3.16663 7.52856 3.16663 7.04575V2.85013C3.16663 2.36727 3.55478 1.97916 4.03751 1.97916Z" fill="black"/>
</svg>
