<svg width="38" height="38" viewBox="0 0 38 38" fill="none" xmlns="http://www.w3.org/2000/svg">
<path fill-rule="evenodd" clip-rule="evenodd" d="M33.3573 0C35.9197 0 38 2.08035 38 4.64268V33.3573C38 35.9196 35.9196 38 33.3573 38H25.4554V23.6821H30.3984L31.3389 17.5501H25.4554V13.5707C25.4554 11.8931 26.2772 10.2578 28.9125 10.2578H31.5875V5.0373C31.5875 5.0373 29.1598 4.62301 26.8388 4.62301C21.9932 4.62301 18.8262 7.55977 18.8262 12.8764V17.5501H13.4399V23.6821H18.8262V38H4.64268C2.08035 38 0 35.9196 0 33.3573V4.64268C0 2.08035 2.08028 0 4.64268 0H33.3573V0Z" fill="black"/>
</svg>
