<svg width="20" height="20" viewBox="0 0 20 20" fill="none" xmlns="http://www.w3.org/2000/svg">
<path d="M6.84185 6.13598C6.84185 6.13598 3.05776 6.55511 0.533429 6.83532C0.305904 6.86287 0.104724 7.01495 0.029282 7.24607C-0.0461605 7.47718 0.0292818 7.71788 0.196932 7.86996C2.07221 9.58119 4.88993 12.1438 4.88993 12.1438C4.88753 12.1438 4.11635 15.8717 3.60382 18.3589C3.56071 18.584 3.64214 18.8223 3.83853 18.9648C4.03372 19.1073 4.28519 19.1097 4.48278 18.9983C6.69097 17.7433 9.99846 15.8561 9.99846 15.8561C9.99846 15.8561 13.3071 17.7433 15.5117 18.9995C15.7129 19.1097 15.9644 19.1073 16.1596 18.9648C16.356 18.8223 16.4374 18.584 16.3931 18.3601C15.8806 15.8716 15.1106 12.1438 15.1106 12.1438C15.1106 12.1438 17.9283 9.58119 19.8036 7.87356C19.9712 7.71668 20.0455 7.47599 19.9712 7.24607C19.897 7.01615 19.6958 6.86406 19.4683 6.83772C16.944 6.55511 13.1587 6.13598 13.1587 6.13598C13.1587 6.13598 11.5899 2.66563 10.5445 0.352065C10.4463 0.144898 10.2404 0 9.99846 0C9.75657 0 9.5494 0.146095 9.45599 0.352065C8.40938 2.66563 6.84185 6.13598 6.84185 6.13598Z" fill="black"/>
</svg>
