<svg width="19" height="18" viewBox="0 0 19 18" fill="none" xmlns="http://www.w3.org/2000/svg">
<path d="M17.9491 0.49858C18.094 0.848011 18.0344 1.14631 17.7702 1.39347L11.4676 7.69602V17.1818C11.4676 17.5398 11.3014 17.7912 10.969 17.9361C10.8582 17.9787 10.7517 18 10.6494 18C10.4193 18 10.2275 17.919 10.0741 17.7571L6.8014 14.4844C6.63947 14.3224 6.5585 14.1307 6.5585 13.9091V7.69602L0.255948 1.39347C-0.00825638 1.14631 -0.0679155 0.848011 0.0769709 0.49858C0.221857 0.166193 0.473278 0 0.831232 0H17.1949C17.5528 0 17.8042 0.166193 17.9491 0.49858Z" fill="black"/>
</svg>
