<svg width="38" height="38" viewBox="0 0 38 38" fill="none" xmlns="http://www.w3.org/2000/svg">
<path d="M18.9997 14.4205C18.0937 14.4205 17.2081 14.6889 16.4548 15.1919C15.7015 15.6949 15.1143 16.4098 14.7676 17.2462C14.4209 18.0826 14.3302 19.0029 14.507 19.8909C14.6837 20.7788 15.12 21.5944 15.7606 22.2346C16.4012 22.8747 17.2175 23.3107 18.106 23.4873C18.9946 23.6639 19.9156 23.5733 20.7527 23.2268C21.5897 22.8804 22.3051 22.2937 22.8084 21.5409C23.3118 20.7882 23.5804 19.9032 23.5804 18.9979C23.5789 17.7843 23.0958 16.6209 22.2371 15.7628C21.3784 14.9047 20.2141 14.422 18.9997 14.4205V14.4205Z" fill="#282828"/>
<path d="M24.3886 7.33771H13.6106C11.9457 7.33963 10.3496 8.00137 9.17232 9.17775C7.99508 10.3541 7.33286 11.9491 7.33093 13.6128V24.3829C7.33286 26.0466 7.99508 27.6416 9.17232 28.8179C10.3496 29.9943 11.9457 30.6561 13.6106 30.658H24.3886C26.0535 30.6561 27.6496 29.9943 28.8268 28.8179C30.0041 27.6416 30.6663 26.0466 30.6682 24.3829V13.6128C30.6663 11.9491 30.0041 10.3541 28.8268 9.17775C27.6496 8.00137 26.0535 7.33963 24.3886 7.33771V7.33771ZM18.9996 25.9934C17.615 25.9934 16.2615 25.5832 15.1102 24.8145C13.9589 24.0458 13.0616 22.9532 12.5318 21.6749C12.0019 20.3967 11.8633 18.9901 12.1334 17.6331C12.4035 16.2761 13.0703 15.0296 14.0493 14.0512C15.0284 13.0729 16.2758 12.4066 17.6338 12.1367C18.9918 11.8667 20.3994 12.0053 21.6786 12.5348C22.9578 13.0642 24.0512 13.9609 24.8204 15.1113C25.5897 16.2617 26.0003 17.6142 26.0003 18.9978C25.9981 20.8525 25.2599 22.6307 23.9475 23.9421C22.635 25.2536 20.8556 25.9913 18.9996 25.9934V25.9934ZM26.6923 13.0625C26.3505 13.0625 26.0163 12.9612 25.7321 12.7715C25.4478 12.5818 25.2262 12.3121 25.0953 11.9966C24.9644 11.6811 24.93 11.3339 24.9965 10.9988C25.063 10.6638 25.2275 10.356 25.469 10.1143C25.7105 9.87258 26.0183 9.70786 26.3535 9.64093C26.6887 9.574 27.0362 9.60787 27.3522 9.73825C27.6681 9.86863 27.9383 10.0897 28.1285 10.3734C28.3188 10.6572 28.4206 10.991 28.421 11.3325C28.4215 11.5597 28.3771 11.7847 28.2904 11.9946C28.2037 12.2046 28.0764 12.3954 27.9158 12.5562C27.7553 12.7169 27.5645 12.8445 27.3546 12.9315C27.1446 13.0185 26.9196 13.0633 26.6923 13.0633V13.0625Z" fill="#282828"/>
<path d="M37.9629 8.89095C37.9606 8.20657 37.8979 7.52373 37.7755 6.85036C37.6189 6.02816 37.3984 5.22693 37.0044 4.4838C36.594 3.70084 36.0599 2.98918 35.4226 2.37624C34.46 1.43461 33.2709 0.756572 31.9699 0.407472C30.7724 0.0847218 29.5475 0.0169443 28.3193 0.0185581C28.3153 0.0131497 28.3127 0.00673236 28.3121 0H9.68067C9.68067 0.00645499 9.68067 0.01291 9.68067 0.0185581C8.98222 0.0314681 8.28215 0.0258199 7.58773 0.112155C6.82622 0.192608 6.07653 0.360469 5.35348 0.612417C4.22895 1.02691 3.21401 1.69256 2.38605 2.5586C1.43697 3.52239 0.753525 4.71513 0.402116 6.0209C0.0839762 7.20861 0.0145343 8.41973 0.0129194 9.63973L0 28.3326C0.022609 29.1758 0.0298761 30.027 0.17199 30.8629C0.322985 31.7505 0.538578 32.6147 0.950384 33.4199C1.49809 34.4989 2.27855 35.4431 3.2355 36.1843C3.9186 36.7283 4.69245 37.1476 5.52143 37.4228C6.74231 37.8166 8.00196 37.9675 9.28017 37.9747C10.0779 37.9796 10.8741 37.9997 11.6719 37.9965C17.4646 37.9723 23.2582 38.0385 29.0509 37.961C29.8162 37.9442 30.5787 37.8633 31.3304 37.719C32.7519 37.4687 34.0748 36.8252 35.1489 35.8615C36.423 34.7254 37.283 33.336 37.6714 31.6585C37.9257 30.562 37.9887 29.4493 38 28.3334V28.1107C37.9992 28.0236 37.9661 9.14108 37.9629 8.89095ZM33.0874 24.3829C33.0846 26.6875 32.1673 28.897 30.5366 30.5267C28.9058 32.1563 26.6949 33.0732 24.3886 33.0762H13.6106C11.3042 33.0734 9.093 32.1566 7.46211 30.5269C5.83122 28.8972 4.91377 26.6877 4.91099 24.3829V13.6128C4.91377 11.308 5.83122 9.09848 7.46211 7.46878C9.093 5.83907 11.3042 4.92229 13.6106 4.91951H24.3886C26.695 4.92229 28.9062 5.83907 30.5371 7.46878C32.168 9.09848 33.0854 11.308 33.0882 13.6128L33.0874 24.3829Z" fill="#282828"/>
</svg>
