<svg width="38" height="38" viewBox="0 0 38 38" fill="none" xmlns="http://www.w3.org/2000/svg">
<path d="M20.433 17.0215V16.9631C20.4208 16.9828 20.4079 17.0025 20.395 17.0215H20.433Z" fill="black"/>
<path d="M35.1907 0H2.80704C1.25706 0 0 1.21094 0 2.70338V35.0354C0 36.5271 1.25706 37.738 2.80704 37.738H35.1907C36.7429 37.738 38 36.5263 38 35.0354V2.70338C38 1.21018 36.7422 0 35.1907 0ZM11.518 31.5915H5.77861V14.551H11.518V31.5915ZM8.6487 12.2232H8.61026C6.68508 12.2232 5.43956 10.9144 5.43956 9.27934C5.43956 7.60784 6.72352 6.33544 8.68637 6.33544C10.65 6.33544 11.8578 7.60784 11.8963 9.27934C11.8963 10.9144 10.6492 12.2232 8.6487 12.2232ZM32.2145 31.5915H26.4751V22.473C26.4751 20.1831 25.6447 18.6201 23.5681 18.6201C21.9827 18.6201 21.0386 19.674 20.6226 20.6922C20.4712 21.0557 20.4343 21.564 20.4343 22.0739V31.5907H14.6949C14.6949 31.5907 14.7702 16.1474 14.6949 14.5503H20.4343V16.9623C21.197 15.8014 22.5609 14.1481 25.6078 14.1481C29.3836 14.1481 32.2152 16.5844 32.2152 21.819V31.5915H32.2145Z" fill="black"/>
</svg>
