<svg width="51" height="44" viewBox="0 0 51 44" fill="none" xmlns="http://www.w3.org/2000/svg">
<path d="M0.642368 1.73363C0.34152 1.07154 0.825553 0.319942 1.55279 0.319942H24.8432C25.2403 0.319942 25.5999 0.554986 25.7592 0.918799L31.2637 13.4885C31.5531 14.1492 31.069 14.8896 30.3477 14.8896H29.7026C28.983 14.8896 28.499 15.6269 28.785 16.2872L37.3875 36.1417C37.546 36.5074 37.9065 36.7441 38.3051 36.7441H42.8349C43.3885 36.7441 43.8367 36.2944 43.8349 35.7408L43.7185 1.00335C43.7167 0.449757 44.1649 0 44.7185 0H50C50.5523 0 51 0.447715 51 1V42.7118C51 43.2654 50.5502 43.7137 49.9967 43.7118L33.2058 43.6558C32.8097 43.6545 32.4517 43.4195 32.2929 43.0566L16.9415 7.96415C16.7795 7.59386 16.4105 7.35749 16.0064 7.36512L3.96749 7.59237C3.56853 7.5999 3.20327 7.36952 3.0382 7.00624L0.642368 1.73363Z" fill="url(#paint0_linear)"/>
<path d="M17.8011 19.6887C18.0427 19.6887 18.2607 19.8336 18.3543 20.0563L20.5696 25.329C20.7357 25.7244 20.4454 26.1614 20.0165 26.1614H11.4737C11.2321 26.1614 11.0141 26.0165 10.9205 25.7938L8.70521 20.5211C8.53907 20.1257 8.82946 19.6887 9.25837 19.6887H17.8011Z" fill="url(#paint1_linear)"/>
<path d="M25.1235 36.7441C25.3523 36.7441 25.5613 36.8743 25.6621 37.0798L28.4941 42.8508C28.6898 43.2495 28.3996 43.7151 27.9555 43.7151H19.6021C19.3698 43.7151 19.1584 43.581 19.0594 43.3709L16.3394 37.5999C16.1518 37.2019 16.4422 36.7441 16.8821 36.7441H25.1235Z" fill="url(#paint2_linear)"/>
<defs>
<linearGradient id="paint0_linear" x1="10.2875" y1="2.15345" x2="70.2767" y2="83.0619" gradientUnits="userSpaceOnUse">
<stop/>
<stop offset="1" stop-opacity="0"/>
</linearGradient>
<linearGradient id="paint1_linear" x1="8.13405" y1="17.2276" x2="28.7457" y2="35.3782" gradientUnits="userSpaceOnUse">
<stop/>
<stop offset="1" stop-opacity="0"/>
</linearGradient>
<linearGradient id="paint2_linear" x1="16.1328" y1="35.3782" x2="35.2063" y2="53.8364" gradientUnits="userSpaceOnUse">
<stop/>
<stop offset="1" stop-opacity="0"/>
</linearGradient>
</defs>
</svg>
