<svg width="15" height="11" viewBox="0 0 15 11" fill="none" xmlns="http://www.w3.org/2000/svg">
<path d="M0.837703 0.00408936C0.947315 0.00332832 1.05597 0.028553 1.15745 0.0783176C1.25893 0.128082 1.35122 0.201409 1.42904 0.29409L7.50071 7.59409L13.5724 0.29409C13.7292 0.105786 13.9419 -1.90735e-06 14.1637 -1.90735e-06C14.3855 -1.90735e-06 14.5982 0.105786 14.7551 0.29409C14.9119 0.482394 15 0.737787 15 1.00409C15 1.27039 14.9119 1.52578 14.7551 1.71409L8.09205 9.71409C8.01462 9.80782 7.92251 9.88221 7.82101 9.93298C7.71952 9.98375 7.61066 10.0099 7.50071 10.0099C7.39076 10.0099 7.2819 9.98375 7.18041 9.93298C7.07891 9.88221 6.9868 9.80782 6.90937 9.71409L0.246362 1.71409C0.168298 1.62113 0.106336 1.51053 0.0640516 1.38867C0.0217676 1.26681 -1.90735e-06 1.1361 -1.90735e-06 1.00409C-1.90735e-06 0.872078 0.0217676 0.741372 0.0640516 0.619513C0.106336 0.497653 0.168298 0.387053 0.246362 0.29409C0.324186 0.201409 0.41648 0.128082 0.517956 0.0783176C0.619431 0.028553 0.728091 0.00332832 0.837703 0.00408936Z" fill="black"/>
</svg>
