<svg width="11" height="16" viewBox="0 0 11 16" fill="none" xmlns="http://www.w3.org/2000/svg">
<path d="M0.499146 14.6673C0.498384 14.5577 0.523609 14.449 0.573374 14.3476C0.623138 14.2461 0.696465 14.1538 0.789146 14.076L8.08915 8.00429L0.789146 1.93263C0.600842 1.7758 0.495054 1.56308 0.495054 1.34129C0.495054 1.11949 0.600842 0.90678 0.789146 0.749947C0.97745 0.593113 1.23284 0.505005 1.49915 0.505005C1.76545 0.505005 2.02084 0.593113 2.20914 0.749947L10.2091 7.41295C10.3029 7.49038 10.3773 7.5825 10.428 7.68399C10.4788 7.78548 10.5049 7.89435 10.5049 8.00429C10.5049 8.11424 10.4788 8.22311 10.428 8.3246C10.3773 8.42609 10.3029 8.51821 10.2091 8.59564L2.20914 15.2586C2.11618 15.3367 2.00558 15.3987 1.88372 15.441C1.76186 15.4832 1.63116 15.505 1.49915 15.505C1.36713 15.505 1.23643 15.4832 1.11457 15.441C0.992709 15.3987 0.88211 15.3367 0.789146 15.2586C0.696465 15.1808 0.623138 15.0885 0.573374 14.987C0.523609 14.8856 0.498384 14.7769 0.499146 14.6673Z" fill="black"/>
</svg>
