<svg width="16" height="20" viewBox="0 0 16 20" fill="none" xmlns="http://www.w3.org/2000/svg">
<path d="M16 17.0797C16 17.5567 15.767 17.9863 15.3011 18.3686C14.8352 18.751 14.214 19.0576 13.4375 19.2885C12.661 19.5194 11.8087 19.6935 10.8807 19.8109C9.95265 19.9282 8.99242 19.9869 8 19.9869C7.00758 19.9869 6.04735 19.9282 5.11932 19.8109C4.19129 19.6935 3.33902 19.5194 2.5625 19.2885C1.78598 19.0576 1.16477 18.751 0.698864 18.3686C0.232955 17.9863 0 17.5567 0 17.0797C0 16.7087 0.125 16.3737 0.375 16.0747C0.625 15.7756 0.969697 15.5239 1.40909 15.3195C1.84848 15.1151 2.29545 14.9466 2.75 14.8141C3.20455 14.6817 3.70076 14.57 4.23864 14.4791C4.43561 14.4413 4.61742 14.481 4.78409 14.5984C4.95076 14.7157 5.04924 14.8728 5.07955 15.0697C5.11742 15.2665 5.07765 15.4482 4.96023 15.6148C4.8428 15.7813 4.68561 15.8797 4.48864 15.91C4.04924 15.9857 3.64773 16.0747 3.28409 16.1769C2.92045 16.2791 2.63068 16.3756 2.41477 16.4665C2.19886 16.5573 2.01515 16.6463 1.86364 16.7333C1.71212 16.8204 1.60795 16.8942 1.55114 16.9548C1.49432 17.0154 1.46212 17.0608 1.45455 17.0911C1.47727 17.1743 1.57955 17.2747 1.76136 17.392C1.94318 17.5093 2.2197 17.6343 2.59091 17.7668C2.96212 17.8992 3.39394 18.0223 3.88636 18.1358C4.37879 18.2494 4.98674 18.344 5.71023 18.4197C6.43371 18.4954 7.19697 18.5333 8 18.5333C8.80303 18.5333 9.56629 18.4954 10.2898 18.4197C11.0133 18.344 11.6212 18.2494 12.1136 18.1358C12.6061 18.0223 13.0379 17.8973 13.4091 17.7611C13.7803 17.6248 14.0568 17.498 14.2386 17.3806C14.4205 17.2633 14.5227 17.1592 14.5455 17.0683C14.5379 17.0381 14.5057 16.9964 14.4489 16.9434C14.392 16.8904 14.2879 16.8185 14.1364 16.7277C13.9848 16.6368 13.8011 16.5479 13.5852 16.4608C13.3693 16.3737 13.0795 16.2791 12.7159 16.1769C12.3523 16.0747 11.9508 15.9857 11.5114 15.91C11.3144 15.8797 11.1572 15.7813 11.0398 15.6148C10.9223 15.4482 10.8826 15.2665 10.9205 15.0697C10.9508 14.8728 11.0492 14.7157 11.2159 14.5984C11.3826 14.481 11.5644 14.4413 11.7614 14.4791C12.2992 14.57 12.7955 14.6817 13.25 14.8141C13.7045 14.9466 14.1515 15.1151 14.5909 15.3195C15.0303 15.5239 15.375 15.7756 15.625 16.0747C15.875 16.3737 16 16.7087 16 17.0797ZM11.6364 6.90456V11.2653C11.6364 11.4622 11.5644 11.6325 11.4205 11.7764C11.2765 11.9202 11.1061 11.9921 10.9091 11.9921H10.1818V16.3529C10.1818 16.5497 10.1098 16.7201 9.96591 16.8639C9.82197 17.0078 9.65152 17.0797 9.45455 17.0797H6.54545C6.34849 17.0797 6.17803 17.0078 6.03409 16.8639C5.89015 16.7201 5.81818 16.5497 5.81818 16.3529V11.9921H5.09091C4.89394 11.9921 4.72348 11.9202 4.57955 11.7764C4.43561 11.6325 4.36364 11.4622 4.36364 11.2653V6.90456C4.36364 6.50331 4.50568 6.16073 4.78977 5.87683C5.07386 5.59292 5.41667 5.45097 5.81818 5.45097H10.1818C10.5833 5.45097 10.9261 5.59292 11.2102 5.87683C11.4943 6.16073 11.6364 6.50331 11.6364 6.90456ZM10.5455 2.54379C10.5455 3.24787 10.2973 3.84785 9.80114 4.34374C9.30492 4.83963 8.70455 5.08757 8 5.08757C7.29545 5.08757 6.69508 4.83963 6.19886 4.34374C5.70265 3.84785 5.45455 3.24787 5.45455 2.54379C5.45455 1.8397 5.70265 1.23972 6.19886 0.74383C6.69508 0.247943 7.29545 0 8 0C8.70455 0 9.30492 0.247943 9.80114 0.74383C10.2973 1.23972 10.5455 1.8397 10.5455 2.54379Z" fill="black"/>
</svg>
