<svg width="20" height="20" viewBox="0 0 20 20" fill="none" xmlns="http://www.w3.org/2000/svg">
<path d="M17.0001 0C16.2044 0 15.4414 0.316071 14.8788 0.87868C14.3162 1.44129 14.0001 2.20435 14.0001 3C14.0027 3.44698 14.1052 3.88772 14.3001 4.29L10.0001 8.59L3.6401 2.23L2.9301 2.93C1.99653 3.85472 1.2566 4.9562 0.753521 6.1701C0.250447 7.38401 -0.00568271 8.68599 9.56336e-05 10C9.56336e-05 12.6522 1.05366 15.1957 2.92903 17.0711C3.85761 17.9997 4.96001 18.7362 6.17326 19.2388C7.38652 19.7413 8.68688 20 10.0001 20C11.3148 20.0045 12.6172 19.7468 13.8312 19.242C15.0451 18.7372 16.1462 17.9954 17.0701 17.06L17.7701 16.35L11.4101 10L15.7101 5.7C16.1124 5.89485 16.5531 5.99735 17.0001 6C17.7957 6 18.5588 5.68393 19.1214 5.12132C19.684 4.55871 20.0001 3.79565 20.0001 3C20.0001 2.20435 19.684 1.44129 19.1214 0.87868C18.5588 0.316071 17.7957 0 17.0001 0ZM10.0001 18C7.87836 18 5.84353 17.1571 4.34324 15.6569C2.84295 14.1566 2.0001 12.1217 2.0001 10C1.99348 8.22427 2.58531 6.4981 3.6801 5.1L14.9001 16.32C13.502 17.4148 11.7758 18.0066 10.0001 18V18ZM17.0001 4C16.8023 4 16.609 3.94135 16.4445 3.83147C16.2801 3.72159 16.1519 3.56541 16.0762 3.38268C16.0005 3.19996 15.9807 2.99889 16.0193 2.80491C16.0579 2.61093 16.1531 2.43275 16.293 2.29289C16.4328 2.15304 16.611 2.0578 16.805 2.01921C16.999 1.98063 17.2001 2.00043 17.3828 2.07612C17.5655 2.15181 17.7217 2.27998 17.8316 2.44443C17.9414 2.60888 18.0001 2.80222 18.0001 3C18.0001 3.26522 17.8947 3.51957 17.7072 3.70711C17.5197 3.89464 17.2653 4 17.0001 4Z" fill="black"/>
</svg>
