<svg width="20" height="17" viewBox="0 0 20 17" fill="none" xmlns="http://www.w3.org/2000/svg">
<path d="M17.6538 13.0769C16.8025 13.0769 16.0833 13.6248 15.8126 14.3846H3.92308C2.48069 14.3846 1.30769 13.2116 1.30769 11.7692C1.30769 10.3268 2.48069 9.15385 3.92308 9.15385H15.6923C17.8552 9.15385 19.6154 7.39369 19.6154 5.23077C19.6154 3.06785 17.8552 1.30769 15.6923 1.30769H3.80277C3.53208 0.547923 2.81285 0 1.96154 0C0.880077 0 0 0.880077 0 1.96154C0 3.043 0.880077 3.92308 1.96154 3.92308C2.81285 3.92308 3.53208 3.37515 3.80277 2.61538H15.6923C17.1347 2.61538 18.3077 3.78838 18.3077 5.23077C18.3077 6.67315 17.1347 7.84615 15.6923 7.84615H3.92308C1.76015 7.84615 0 9.60631 0 11.7692C0 13.9322 1.76015 15.6923 3.92308 15.6923H15.8126C16.0833 16.4521 16.8025 17 17.6538 17C18.7353 17 19.6154 16.1199 19.6154 15.0385C19.6154 13.957 18.7353 13.0769 17.6538 13.0769ZM1.96154 2.61538C1.60062 2.61538 1.30769 2.32246 1.30769 1.96154C1.30769 1.60062 1.60062 1.30769 1.96154 1.30769C2.32246 1.30769 2.61538 1.60062 2.61538 1.96154C2.61538 2.32246 2.32246 2.61538 1.96154 2.61538ZM17.6538 15.6923C17.2929 15.6923 17 15.3994 17 15.0385C17 14.6775 17.2929 14.3846 17.6538 14.3846C18.0148 14.3846 18.3077 14.6775 18.3077 15.0385C18.3077 15.3994 18.0148 15.6923 17.6538 15.6923Z" fill="black"/>
</svg>
