<svg width="38" height="38" viewBox="0 0 38 38" fill="none" xmlns="http://www.w3.org/2000/svg">
<path fill-rule="evenodd" clip-rule="evenodd" d="M33.3573 0C35.9197 0 38 2.08035 38 4.64268V33.3573C38 35.9196 35.9196 38 33.3573 38H4.64268C2.08035 38 0 35.9196 0 33.3573V4.64268C0 2.08035 2.08028 0 4.64268 0H33.3573V0ZM14.5112 31.5091C24.6004 31.5091 30.117 23.1489 30.117 15.9033C30.117 15.6645 30.117 15.4256 30.1056 15.1981C31.1748 14.4246 32.1076 13.4578 32.8469 12.3545C31.8687 12.7867 30.8109 13.0825 29.6962 13.219C30.8337 12.5364 31.6981 11.4672 32.1076 10.1819C31.0498 10.8075 29.8782 11.2625 28.627 11.5127C27.626 10.4435 26.2042 9.78381 24.6232 9.78381C21.5975 9.78381 19.1406 12.2408 19.1406 15.2664C19.1406 15.6986 19.1861 16.1194 19.2885 16.5175C14.7273 16.2901 10.6894 14.1062 7.98223 10.7848C7.51584 11.5924 7.24286 12.5364 7.24286 13.5374C7.24286 15.437 8.20971 17.1204 9.68837 18.0986C8.7898 18.0758 7.94809 17.8256 7.20872 17.4161V17.4844C7.20872 20.146 9.09692 22.3527 11.6107 22.8645C11.1557 22.9896 10.6666 23.0579 10.1661 23.0579C9.8135 23.0579 9.47232 23.0238 9.13106 22.9555C9.82493 25.1395 11.8495 26.7205 14.2496 26.766C12.3728 28.2333 10.0069 29.1091 7.43627 29.1091C6.99267 29.1091 6.56042 29.0864 6.12817 29.0295C8.52818 30.5992 11.4173 31.5091 14.5112 31.5091V31.5091Z" fill="black"/>
</svg>
