<svg width="38" height="38" viewBox="0 0 38 38" fill="none" xmlns="http://www.w3.org/2000/svg">
<path fill-rule="evenodd" clip-rule="evenodd" d="M33.3573 0C35.9197 0 38 2.08035 38 4.64268V33.3573C38 35.9196 35.9196 38 33.3573 38H4.64268C2.08035 38 0 35.9196 0 33.3573V4.64268C0 2.08035 2.08028 0 4.64268 0H33.3573V0ZM31.8012 13.035C31.494 11.8855 30.5887 10.9801 29.4391 10.673C27.3552 10.1145 19 10.1145 19 10.1145C19 10.1145 10.6448 10.1145 8.56091 10.673C7.41156 10.9801 6.50609 11.8855 6.19882 13.035C5.64063 15.1187 5.64062 19.4662 5.64062 19.4662C5.64062 19.4662 5.64063 23.8137 6.19882 25.8971C6.50609 27.0467 7.41156 27.9523 8.56091 28.2595C10.6448 28.8177 19 28.8177 19 28.8177C19 28.8177 27.3552 28.8177 29.4391 28.2595C30.5887 27.9523 31.494 27.0467 31.8012 25.8971C32.3594 23.8137 32.3594 19.4662 32.3594 19.4662C32.3594 19.4662 32.3594 15.1187 31.8012 13.035V13.035ZM16.328 23.4741V15.4584L23.2697 19.4662L16.328 23.4741V23.4741Z" fill="black"/>
</svg>
